<?xml version="1.0" encoding="utf-8"?>
<!-- Generator: Adobe Illustrator 18.1.1, SVG Export Plug-In . SVG Version: 6.00 Build 0)  -->
<!DOCTYPE svg PUBLIC "-//W3C//DTD SVG 1.1//EN" "http://www.w3.org/Graphics/SVG/1.1/DTD/svg11.dtd">
<svg version="1.1" id="Layer_1" xmlns="http://www.w3.org/2000/svg" xmlns:xlink="http://www.w3.org/1999/xlink" x="0px" y="0px"
	 viewBox="0 0 2000 792" enable-background="new 0 0 2000 792" xml:space="preserve">
<g>
	<path fill="#212121" d="M1678.2,20.6c3.2-14.7,17.8-22.9,32.5-19.8c14.7,3.2,22.9,17.8,19.8,32.5c-3.2,14.7-81.6,229.4-81.6,229.4
		S1675,34.6,1678.2,20.6z"/>
	<path fill="#212121" d="M1539.3,69.7c-4.5-14,3.2-29.3,17.2-33.8c14-4.5,29.3,3.2,33.8,17.2c4.5,14,38.2,213.5,38.2,213.5
		S1543.1,83.7,1539.3,69.7z"/>
	<path fill="#212121" d="M1441.8,188.2c-12.1-8.9-14.7-25.5-5.7-37.6s25.5-14.7,37.6-5.7c12.1,8.9,135.8,133.2,135.8,133.2
		S1453.9,197.8,1441.8,188.2z"/>
	<path fill="#212121" d="M1446.9,329.1c-14.7,0-26.8-12.1-26.8-26.8c0-14.7,12.1-26.8,26.8-26.8c14.7,0,160.6,26.8,160.6,26.8
		S1461.5,329.1,1446.9,329.1z"/>
	<path fill="#212121" d="M1537.4,435.5c-10.8,10.2-28,9.6-37.6-1.3c-10.2-10.8-9.6-28,1.3-38.2c10.8-10.2,116-72.7,116-72.7
		S1548.2,425.3,1537.4,435.5z"/>
	<path fill="#212121" d="M1665.5,434.9c0.6,14-10.8,26.1-24.9,26.1c-14,0.6-26.1-10.8-26.1-24.9c-0.6-14,23.6-103.9,23.6-103.9
		S1665.5,420.9,1665.5,434.9z"/>
	<path fill="#212121" d="M1961.8,137.9c14-6.4,30,0,35.7,14c6.4,14-0.6,30-14,35.7c-14,6.4-304.7,105.2-304.7,105.2
		S1947.8,143.6,1961.8,137.9z"/>
	<path fill="#212121" d="M1827.4,48c10.2-12.1,27.4-14,38.9-3.8c10.8,9.6,12.1,26.8,1.9,38.9S1668,274.3,1668,274.3
		S1817.2,59.5,1827.4,48z"/>
</g>
<g>
	<polygon fill="#212121" points="40.9,517.7 14.1,517.7 14.1,377.5 0.1,371.8 0.1,354.6 40.9,354.6 	"/>
	<path fill="#212121" d="M325.8,518.4h-27.4v-98.2c0-15.9-2.5-27.4-8.3-34.4c-5.1-7-14.7-10.8-27.4-10.8c-10.8,0-20.4,3.2-28,9.6
		c-6.4,5.1-10.8,12.1-14,19.8v114.1h-27.4v-98.2c0-15.9-2.5-27.4-8.3-34.4c-5.1-7-14.7-10.8-27.4-10.8c-10.8,0-20.4,3.2-28,9.6
		c-6.4,5.1-10.8,12.1-14,19.8v114.1H88.7l0.6-163.2h13.4l8.9,16.6c12.7-13.4,28-20.4,45.9-20.4c11.5,0,21.7,2.5,31.9,7
		s17.2,10.8,22.3,18.5c13.4-16.6,30-24.9,50.4-24.9c42.1,0,63.1,21,63.1,63.7L325.8,518.4z"/>
	<path fill="#212121" d="M522.1,435.5c0,24.9-6.4,45.3-17.8,59.9c-13.4,16.6-32.5,24.9-58,24.9c-15.9,0-31.9-4.5-47.8-14V584h-26.8
		l0.6-229.4h16.6l6.4,17.2c4.5-5.1,10.2-9.6,18.5-13.4c10.2-5.1,20.4-7,31.9-7c24.9,0,44,7,57.4,21
		C515.7,387.7,522.1,408.8,522.1,435.5z M494.7,435.5c0-40.8-16.6-61.2-50.4-61.2c-10.8,0-21,3.2-30,10.2
		c-7.6,5.7-12.7,11.5-15.9,18.5v75.2c15.9,14,31.9,20.4,47.2,20.4C478.1,499.3,494.7,477.6,494.7,435.5z"/>
	<path fill="#212121" d="M659.1,357.8l-7,22.3c-7.6-3.2-15.3-5.1-22.9-5.1c-10.2,0-19.1,3.2-26.8,8.9c-7,5.1-11.5,11.5-14,18.5
		v114.7h-26.8l0.6-163.2h14l5.1,17.2c4.5-5.1,10.2-9.6,18.5-14c10.2-5.1,19.1-7,30-7C639.3,352,649.5,353.9,659.1,357.8z"/>
	<path fill="#212121" d="M823.5,436.8c0,26.8-6.4,47.2-17.8,61.8c-12.7,15.9-31.9,23.6-57.4,23.6c-24.9,0-44-8.3-57.4-24.2
		c-12.1-14.7-17.2-35.1-17.2-61.8c0-24.9,5.7-45.3,17.2-59.3c12.7-16.6,31.9-24.9,58-24.9c24.9,0,44,8.3,57.4,24.9
		C817.2,392.2,823.5,411.9,823.5,436.8z M795.5,436.8c0-41.4-15.9-61.8-47.8-61.8s-47.8,20.4-47.8,61.8c0,21,3.2,37,10.8,47.2
		c7.6,10.8,19.8,16.6,37,16.6c17.2,0,30-5.1,37.6-16.6C792.3,473.1,795.5,457.8,795.5,436.8z"/>
	<path fill="#212121" d="M996.3,355.9l-56.1,162.5h-38.2l-55.4-163.2h28.7l45.9,141.5l47.2-141.5L996.3,355.9z"/>
	<polygon fill="#212121" points="1066.4,519 1039,519 1039.6,378.8 1024.9,373.7 1024.9,356.5 1066.4,356.5 	"/>
	<path fill="#212121" d="M1253.1,519.7h-27.4v-98.8c0-30.6-12.7-45.9-37.6-45.9c-11.5,0-21,3.2-30.6,9.6
		c-8.3,6.4-13.4,12.7-15.9,19.8v114.1h-26.8l0.6-163.2h16.6l5.7,17.8c4.5-5.7,11.5-10.2,19.8-14c10.2-4.5,20.4-7,30.6-7
		c43.3,0,65,21,65,63.7L1253.1,519.7z"/>
	<path fill="#212121" d="M1445,356.5l-0.6,158.7c0,22.3-6.4,40.2-19.8,53.5c-13.4,12.7-31.9,19.1-55.4,19.1
		c-19.1,0-37-6.4-53.5-19.1l14.7-20.4c13.4,10.2,26.1,15.9,38.2,15.9c32.5,0,48.4-16.6,48.4-49.7v-13.4c-14,11.5-30,16.6-47.8,16.6
		c-21.7,0-39.5-8.3-53.5-23.6c-14-15.9-20.4-35.7-20.4-59.3c0-24.9,6.4-45.3,19.8-59.9c12.7-14.7,31.9-21.7,57.4-21.7
		c17.2,0,33.1,5.1,47.2,14.7l6.4-11.5H1445z M1418.2,473.8v-77.1c-3.8-4.5-9.6-8.3-16.6-12.1c-10.2-5.1-19.8-8.3-29.3-8.3
		c-32.5,0-48.4,19.1-48.4,58c0,17.2,3.8,31.2,11.5,41.4c8.3,11.5,20.4,17.2,37,17.2C1388.2,493.5,1404.2,487.1,1418.2,473.8z"/>
</g>
</svg>
