<svg xmlns="http://www.w3.org/2000/svg" width="60" height="60" viewBox="0 0 720 600"><path fill="#4b4e52" d="M0 208.6h151.2v14.2H83.1v171.4H67.6V222.8H0v-14.2zm194.5 174.9c15 0 26.3-3.7 37.8-13.4v14.8c-10 8.2-23.2 11.8-39 11.8-37.4 0-62.6-26.6-62.6-68.6 0-41.3 22.4-71 58.1-71 35 0 53.2 26.6 53.2 65.5v5.5h-96.5c0 36.4 21.1 55.4 49 55.4zm-48.4-67.6h81.3c-.8-23.6-12.1-45.3-38.7-45.3-22.1 0-38.9 16.3-42.6 45.3zm131.8 78.3h-15V197.8h15v196.4zm85.5-10.7c15 0 26.3-3.7 37.8-13.4v14.8c-10 8.2-23.2 11.8-39 11.8-37.4 0-62.6-26.6-62.6-68.6 0-41.3 22.4-71 58.1-71 35 0 53.2 26.6 53.2 65.5v5.5h-96.5c0 36.4 21.1 55.4 49 55.4zM315 315.9h81.3c-.8-23.6-12.1-45.3-38.7-45.3-22.1 0-38.9 16.3-42.6 45.3zm179.6-42.1c-3.7-1.5-7.6-2.4-12.4-2.4-16.3 0-29.2 11.8-35.7 29v93.7h-15V259.9h15v21.5c6-13.4 19.7-24.2 36.3-24.2 5.2 0 8.7.8 11.8 1.8v14.8zm22.6-44.4c-5.8 0-10.3-4.5-10.3-10.3 0-5.5 4.5-10.3 10.3-10.3 5.8 0 10.3 4.8 10.3 10.3 0 5.8-4.5 10.3-10.3 10.3zm7.5 164.8h-15V260.1h15v134.1zm132.9 0h-18.7l-69.8-68.9v68.9h-15V197.8h15v120.9l67.6-58.6h19.7l-71.6 61.3 72.8 72.8zm42.9-123.7c-10.7 0-19.5-8.3-19.5-19.7 0-11.4 8.9-19.7 19.5-19.7s19.5 8.3 19.5 19.7c0 11.4-8.9 19.7-19.5 19.7m0-36.2c-8.9 0-16 6.8-16 16.5s7.2 16.5 16 16.5 16-6.8 16-16.5-7.2-16.5-16-16.5m-2.3 20.1v6.6h-5.8v-20.7h9.7c4.6 0 7.6 2.7 7.6 7.2 0 3.2-1.5 5.3-3.9 6.2l4.8 7.2h-6.5l-3.9-6.6-2 .1zm3.2-9.3h-3.2v4.6h3.2c1.7 0 2.7-.8 2.7-2.3s-1-2.3-2.7-2.3"></path></svg>