<svg width="582" height="652" xmlns="http://www.w3.org/2000/svg">
 <style type="text/css">.st0{fill:#00000;}</style>

 <g>
  <title>background</title>
  <rect fill="none" id="canvas_background" height="654" width="584" y="-1" x="-1"/>
 </g>
 <g>
  <title>Layer 1</title>
  <g stroke="null" id="FooterLogo">
   <path stroke="null" id="svg_1" d="m429.216983,556.510306l-367.783007,0c0,51.207545 41.009433,92.433959 91.999997,92.433959l275.78301,0c50.773583,0 91.783016,-41.443395 91.783016,-92.433959l0,-380.150931c0,-1.735849 -1.518868,-3.471698 -3.254717,-3.471698l-85.273582,0c-1.735849,0 -3.254717,1.518868 -3.254717,3.471698l0,380.150931l0,0zm0,-555.47168c50.773583,0 91.783016,41.443395 91.783016,92.65094l-367.783007,0l0,380.150931c0,1.735849 -1.518868,3.471698 -3.471698,3.471698l-85.273582,0c-1.735849,0 -3.471698,-1.518868 -3.471698,-3.471698l0,-380.150931c0,-51.207545 41.009433,-92.65094 91.999997,-92.65094l276.216972,0l0,0z" class="st0"/>
  </g>
 </g>
</svg>